<svg height="511pt" viewBox="0 0 511 511.99991" width="511pt" xmlns="http://www.w3.org/2000/svg"><path d="m34.632812 110.949219v316.925781c-10.722656 8.003906-17.046874 20.59375-17.066406 33.976562v41.617188c0 4.710938 3.820313 8.53125 8.53125 8.53125h187.726563c4.714843 0 8.535156-3.820312 8.535156-8.53125v-25.601562h34.128906c4.714844 0 8.535157-3.820313 8.535157-8.53125v-59.730469h204.792968c4.710938 0 8.53125-3.820313 8.53125-8.535157v-162.125h8.535156c4.710938 0 8.53125-3.820312 8.53125-8.535156v-41.613281c-.019531-13.382813-6.34375-25.972656-17.066406-33.980469v-112.132812c0-4.710938-3.820312-8.53125-8.53125-8.53125h-28.585937c-9.375-26.628906-38.5625-40.613282-65.1875-31.238282-14.605469 5.144532-26.09375 16.632813-31.234375 31.238282h-88.320313c-4.710937 0-8.53125 3.820312-8.53125 8.53125v59.730468h-204.792969c-4.710937 0-8.53125 3.820313-8.53125 8.535157zm170.660157 383.984375h-17.066407v-25.597656h-17.066406v25.597656h-102.398437v-25.597656h-17.0625v25.597656h-17.066407v-33.082032c-.003906-11.746093 7.988282-21.988281 19.386719-24.839843l42.40625-10.597657c3.800781-.949218 6.46875-4.359374 6.46875-8.277343v-17.066407c.019531-3.25-1.8125-6.226562-4.71875-7.679687-7.574219-3.75-12.363281-11.476563-12.347656-19.933594v-49.183593c0-18.851563 15.28125-34.132813 34.132813-34.132813 18.851562 0 34.132812 15.28125 34.132812 34.132813v49.183593c.035156 8.472657-4.757812 16.222657-12.347656 19.976563-2.894532 1.445312-4.71875 4.402344-4.71875 7.636718v17.066407c0 3.917969 2.667968 7.328125 6.46875 8.277343l42.410156 10.597657c11.394531 2.851562 19.386719 13.09375 19.386719 24.839843zm238.921875-394.53125v-49.183594h17.066406v95.730469l-34.128906-8.53125v-5.546875c10.714844-7.328125 17.109375-19.488282 17.0625-32.46875zm-85.328125-49.183594c0-18.851562 15.28125-34.132812 34.132812-34.132812 18.847657 0 34.128907 15.28125 34.128907 34.132812v49.183594c.035156 8.46875-4.753907 16.21875-12.347657 19.976562-2.890625 1.445313-4.71875 4.402344-4.71875 7.636719v17.066406c.003907 3.914063 2.667969 7.328125 6.46875 8.277344l42.410157 10.597656c11.394531 2.851563 19.390624 13.089844 19.386718 24.839844v33.082031h-17.066406v-25.601562h-17.066406v25.601562h-102.394532v-25.601562h-17.066406v25.601562h-17.066406v-33.082031c-.003906-11.75 7.992188-21.992187 19.386719-24.839844l42.410156-10.597656c3.800781-.949219 6.464844-4.363281 6.46875-8.277344v-17.066406c0-3.234375-1.828125-6.191406-4.71875-7.636719-7.59375-3.757812-12.382813-11.507812-12.347656-19.976562zm-93.863281 0h76.796874v49.183594c-.042968 12.980468 6.347657 25.140625 17.066407 32.46875v5.546875l-35.941407 8.984375c-19.007812 4.730468-32.34375 21.804687-32.324218 41.394531v41.613281c0 4.714844 3.820312 8.535156 8.535156 8.535156h162.125v153.59375h-196.257812v-22.066406l23.097656-23.101562c3.332031-3.332032 3.332031-8.730469 0-12.0625l-45.164063-45.167969 19.566407-19.566406c1.601562-1.597657 2.5-3.769531 2.5-6.03125zm-17.066407 68.261719v141.53125l-23.097656 23.097656c-3.332031 3.332031-3.332031 8.734375 0 12.066406l45.164063 45.164063-19.566407 19.566406c-1.601562 1.597656-2.5 3.769531-2.5 6.03125v93.863281h-25.683593c-.429688-19.175781-13.628907-35.695312-32.238282-40.34375l-35.941406-8.984375v-5.546875c10.707031-7.316406 17.097656-19.457031 17.066406-32.425781v-49.226562c0-28.277344-22.921875-51.199219-51.199218-51.199219-28.273438 0-51.199219 22.921875-51.199219 51.199219v49.183593c-.042969 12.984375 6.351562 25.144531 17.066406 32.46875v5.546875l-34.128906 8.53125v-300.523437zm0 0"/><path d="m85.828125 136.546875h17.066406v17.066406h-17.066406zm0 0"/><path d="m119.960938 136.546875h110.929687v17.066406h-110.929687zm0 0"/><path d="m68.761719 170.679688h162.128906v17.066406h-162.128906zm0 0"/><path d="m68.761719 204.8125h162.128906v17.066406h-162.128906zm0 0"/><path d="m68.761719 238.945312h127.996093v17.066407h-127.996093zm0 0"/><path d="m324.753906 256.007812h17.066406v17.066407h-17.066406zm0 0"/><path d="m358.886719 256.007812h85.328125v17.066407h-85.328125zm0 0"/><path d="m307.6875 290.140625h136.527344v17.066406h-136.527344zm0 0"/><path d="m307.6875 324.273438h136.527344v17.066406h-136.527344zm0 0"/><path d="m307.6875 358.40625h102.398438v17.066406h-102.398438zm0 0"/><path d="m495.414062 409.605469c0 9.421875-7.640624 17.066406-17.066406 17.066406h-76.796875v17.0625h76.796875c18.851563 0 34.132813-15.28125 34.132813-34.128906v-102.398438h-17.066407zm0 0"/><path d="m495.414062 273.074219h17.066407v17.066406h-17.066407zm0 0"/><path d="m17.566406 102.414062c0-9.425781 7.640625-17.066406 17.066406-17.066406h76.796876v-17.066406h-76.796876c-18.851562 0-34.132812 15.28125-34.132812 34.132812v179.195313h17.066406zm0 0"/><path d="m128.496094 68.285156h17.066406v17.066406h-17.066406zm0 0"/></svg>