<svg id="Line_stroke_cutting_ex_Revise" height="512" viewBox="0 0 512 512" width="512" xmlns="http://www.w3.org/2000/svg" data-name="Line stroke cutting ex Revise"><g><path d="m96 304h45.954v16h-45.954z"/><path d="m368 304h45.954v16h-45.954z"/><path d="m152 88h80v16h-80z"/><path d="m152 128h80v16h-80z"/><path d="m152 168h80v16h-80z"/><path d="m384 48h-98a37.955 37.955 0 0 0 -30 14.7 37.955 37.955 0 0 0 -30-14.7h-98a8 8 0 0 0 -8 8v160a8 8 0 0 0 8 8h256a8 8 0 0 0 8-8v-160a8 8 0 0 0 -8-8zm-248 16h90a22.025 22.025 0 0 1 22 22v122h-112zm240 144h-112v-122a22.025 22.025 0 0 1 22-22h90z"/><path d="m280 88h80v16h-80z"/><path d="m280 128h80v16h-80z"/><path d="m280 168h80v16h-80z"/><path d="m289.973 256h188.027a18.021 18.021 0 0 0 18-18v-204a18.021 18.021 0 0 0 -18-18h-444a18.021 18.021 0 0 0 -18 18v14h16v-14a2 2 0 0 1 2-2h444a2 2 0 0 1 2 2v204a2 2 0 0 1 -2 2h-444a2 2 0 0 1 -2-2v-174h-16v174a18.021 18.021 0 0 0 18 18h188.027l-12.452 56.032h-15.442l3.509-18.714a18 18 0 0 0 -17.691-21.318h-119.902a18 18 0 0 0 -17.691 21.317l3.509 18.715h-21.867a8 8 0 0 0 -8 8v31.968a8 8 0 0 0 8 8h30.861l6.217 33.16a28.015 28.015 0 0 0 16.567 20.608l-21.234 63.7a8 8 0 0 0 -.411 2.532v16h16v-14.7l5.766-17.3h84.468l5.766 17.3v14.7h16v-16a8 8 0 0 0 -.411-2.53l-21.234-63.7a28.015 28.015 0 0 0 16.567-20.608l6.217-33.162h141.722l6.217 33.16a28.015 28.015 0 0 0 16.567 20.608l-21.234 63.7a8 8 0 0 0 -.411 2.532v16h16v-14.7l5.766-17.3h84.468l5.766 17.3v14.7h16v-16a8 8 0 0 0 -.411-2.53l-21.234-63.7a28.015 28.015 0 0 0 16.567-20.608l-15.722-2.951a12.007 12.007 0 0 1 -11.8 9.789h-62.8a12.007 12.007 0 0 1 -11.8-9.789l-18.721-99.843a2 2 0 0 1 1.97-2.368h119.9a2 2 0 0 1 1.966 2.369l-15.78 84.157 15.726 2.948 3.278-17.474h30.861a8 8 0 0 0 8-8v-31.968a8 8 0 0 0 -8-8h-21.867l3.509-18.714a18 18 0 0 0 -17.691-21.318h-119.9a18 18 0 0 0 -17.691 21.317l3.509 18.715h-15.444zm-51.556 0h35.166l12.444 56h-60.054zm116.683 192 10.667-32h52.468l10.665 32zm124.9-119.968v15.968h-19.861l2.994-15.968zm-448 15.968v-15.968h16.867l2.994 15.968zm51.1 104 10.667-32h52.468l10.665 32zm80.1-57.789a12.007 12.007 0 0 1 -11.8 9.789h-62.8a12.007 12.007 0 0 1 -11.8-9.789l-18.717-99.843a2 2 0 0 1 1.966-2.368h119.9a2 2 0 0 1 1.966 2.369zm160.661-46.211h-135.722l2.994-15.968h129.734z"/><path d="m82.343 165.657-24-24a8 8 0 0 1 0-11.314l24-24 11.314 11.314-18.344 18.343 18.344 18.343z"/><path d="m429.657 165.657-11.314-11.314 18.344-18.343-18.344-18.343 11.314-11.314 24 24a8 8 0 0 1 0 11.314z"/><path d="m248 440h16v16h-16z"/><path d="m288 480h-64a8 8 0 0 1 -8-8v-48a8 8 0 0 1 8-8h64a8 8 0 0 1 8 8v48a8 8 0 0 1 -8 8zm-56-16h48v-32h-48z"/></g></svg>