<svg xmlns="http://www.w3.org/2000/svg" xmlns:xlink="http://www.w3.org/1999/xlink" width="512" height="512" viewBox="0 0 512 512">
  <defs>
    <clipPath id="clip-Instagram_Story_1">
      <rect width="512" height="512"/>
    </clipPath>
  </defs>
  <g id="Instagram_Story_1" data-name="Instagram Story – 1" clip-path="url(#clip-Instagram_Story_1)">
    <rect width="512" height="512" fill="#1f80d3"/>
    <g id="college" transform="translate(-1.272 55.809)">
      <path id="Path_3" data-name="Path 3" d="M196.313,146.225l49.578,20.643c5.227,2.175,14.4,2.177,19.625,0l49.578-20.643L255.7,121.5Z" fill="#fff"/>
      <path id="Path_4" data-name="Path 4" d="M255.886,65.636a92.182,92.182,0,1,0,92.182,92.182,92.182,92.182,0,0,0-92.182-92.182ZM336.7,146.225a6,6,0,0,1-3.694,5.539l-9.676,4.029V177.5a6,6,0,0,1-12,0V160.789l-4.957,2.064v28.988a6,6,0,0,1-6,6h-3.859c-10.109,0-21.391,10.345-28.856,17.19-5.781,5.3-8.683,7.962-12.489,7.962-3.84,0-6.936-2.826-12.555-7.953-7.5-6.849-18.847-17.2-29.318-17.2h-3.249a6,6,0,0,1-6-6v-29.4L178.4,151.764a6,6,0,0,1,0-11.078l75-31.228a6,6,0,0,1,4.613,0l75,31.228A6,6,0,0,1,336.7,146.225Z" fill="#fff"/>
      <path id="Path_5" data-name="Path 5" d="M255.7,180.472a38.812,38.812,0,0,1-14.426-2.526l-25.227-10.5v18.532c13.993,1.347,26.324,12.6,34.656,20.2,1.466,1.338,3.166,2.889,4.44,3.948,1.267-1.06,2.951-2.6,4.4-3.938,8.407-7.708,20.9-19.166,34.825-20.26V167.849l-24.249,10.1a38.8,38.8,0,0,1-14.424,2.523Z" fill="#fff"/>
      <path id="Path_10" data-name="Path 10" d="M346.975,63.466a126.546,126.546,0,0,0-179.383,0,135.429,135.429,0,0,0-38.99,86.753c-2.021,30.323,7.7,61.867,27.359,88.834L257.283,374.5,358.648,239c19.716-26.287,29.415-57.806,27.317-88.759a135.438,135.438,0,0,0-38.99-86.775ZM255.886,262A104.182,104.182,0,1,1,360.068,157.818,104.182,104.182,0,0,1,255.886,262Z" fill="#fff"/>
    </g>
  </g>
</svg>
